<?xml version="1.0" encoding="UTF-8"?>
<!DOCTYPE svg PUBLIC "-//W3C//DTD SVG 1.1//EN"
    "http://www.w3.org/Graphics/SVG/1.1/DTD/svg11.dtd" >
<svg contentScriptType="text/ecmascript" width="1008.69464"
     xmlns:xlink="http://www.w3.org/1999/xlink" zoomAndPan="magnify"
     contentStyleType="text/css"
     viewBox="-488.000000 -540.781006 1008.694641 1055.224365"
     height="1055.2244" preserveAspectRatio="xMidYMid meet"
     xmlns="http://www.w3.org/2000/svg" version="1.1">
    <g id="edges">
        <path fill="none" stroke-width="1.0"
              d="M -437.969604,46.162693 C -337.969604,-53.837307 -337.969604,146.162689 -437.969604,46.162693"
              class="id_0" stroke-opacity="1.0" stroke="#c0c0c0"/>
        <path stroke-linecap="round" fill="none" class="id_2 id_0"
              d="M -17.223007,-129.693634 A 414.104318,414.104318 0,0 1,-388.370972,52.485237"
              stroke="#c0c0c0" stroke-width="1.0" stroke-opacity="1.0"/>
        <path stroke-linecap="round" fill="none" class="id_9 id_0"
              d="M -319.897034,-199.174545 A 261.423940,261.423940 0,0 1,-398.787811,15.101664"
              stroke="#c0c0c0" stroke-width="1.0" stroke-opacity="1.0"/>
        <path fill="none" stroke-width="1.0"
              d="M 148.171097,88.736954 C 248.171097,-11.263046 248.171097,188.736954 148.171097,88.736954"
              class="id_1" stroke-opacity="1.0" stroke="#c0c0c0"/>
        <path stroke-linecap="round" fill="none" class="id_2 id_1"
              d="M 51.078159,-147.223465 A 247.230215,247.230215 0,0 1,150.697556,38.800823"
              stroke="#c0c0c0" stroke-width="1.0" stroke-opacity="1.0"/>
        <path stroke-linecap="round" fill="none" class="id_5 id_1"
              d="M 38.216507,366.204529 A 283.155633,283.155633 0,0 1,110.806274,121.961494"
              stroke="#c0c0c0" stroke-width="1.0" stroke-opacity="1.0"/>
        <path stroke-linecap="round" fill="none" class="id_9 id_1"
              d="M -279.595245,-247.121689 A 487.192872,487.192872 0,0 1,130.353912,42.019207"
              stroke="#c0c0c0" stroke-width="1.0" stroke-opacity="1.0"/>
        <path stroke-linecap="round" fill="none" class="id_6 id_1"
              d="M -236.096344,308.367004 A 402.946736,402.946736 0,0 1,98.171097,88.732254"
              stroke="#c0c0c0" stroke-width="1.0" stroke-opacity="1.0"/>
        <path stroke-linecap="round" fill="none" class="id_7 id_1"
              d="M 301.557983,263.909149 A 228.734071,228.734071 0,0 1,162.694717,136.581131"
              stroke="#c0c0c0" stroke-width="1.0" stroke-opacity="1.0"/>
        <path stroke-linecap="round" fill="none" class="id_10 id_1"
              d="M 281.454041,-287.737854 A 366.995428,366.995428 0,0 1,185.649643,55.640747"
              stroke="#c0c0c0" stroke-width="1.0" stroke-opacity="1.0"/>
        <path stroke-linecap="round" fill="none" class="id_3 id_1"
              d="M 396.330811,-21.586527 A 260.848938,260.848938 0,0 1,198.143539,90.396568"
              stroke="#c0c0c0" stroke-width="1.0" stroke-opacity="1.0"/>
        <path fill="none" stroke-width="1.0"
              d="M 8.114049,-172.798553 C 108.114052,-272.798553 108.114052,-72.798553 8.114049,-172.798553"
              class="id_2" stroke-opacity="1.0" stroke="#c0c0c0"/>
        <path stroke-linecap="round" fill="none" class="id_6 id_2"
              d="M -262.327515,304.671753 A 491.253897,491.253897 0,0 1,-35.430878,-148.225418"
              stroke="#c0c0c0" stroke-width="1.0" stroke-opacity="1.0"/>
        <path stroke-linecap="round" fill="none" class="id_7 id_2"
              d="M 303.129150,258.177948 A 469.231701,469.231701 0,0 1,11.280545,-122.898918"
              stroke="#c0c0c0" stroke-width="1.0" stroke-opacity="1.0"/>
        <path stroke-linecap="round" fill="none" class="id_9 id_2"
              d="M -282.394409,-264.757263 A 288.348733,288.348733 0,0 1,-27.556347,-207.835999"
              stroke="#c0c0c0" stroke-width="1.0" stroke-opacity="1.0"/>
        <path stroke-linecap="round" fill="none" class="id_5 id_2"
              d="M 20.475620,375.130157 A 490.694001,490.694001 0,0 1,-16.686720,-129.382874"
              stroke="#c0c0c0" stroke-width="1.0" stroke-opacity="1.0"/>
        <path stroke-linecap="round" fill="none" class="id_3 id_2"
              d="M 373.202759,-49.611702 A 355.306662,355.306662 0,0 1,41.928547,-135.966782"
              stroke="#c0c0c0" stroke-width="1.0" stroke-opacity="1.0"/>
        <path stroke-linecap="round" fill="none" class="id_8 id_2"
              d="M -31.985121,-406.432220 A 232.224468,232.224468 0,0 1,20.861629,-221.146240"
              stroke="#c0c0c0" stroke-width="1.0" stroke-opacity="1.0"/>
        <path stroke-linecap="round" fill="none" class="id_10 id_2"
              d="M 244.151047,-290.740936 A 254.450572,254.450572 0,0 1,58.107071,-173.633911"
              stroke="#c0c0c0" stroke-width="1.0" stroke-opacity="1.0"/>
        <path stroke-linecap="round" fill="none" class="id_4 id_2"
              d="M -152.742920,34.674557 A 253.341766,253.341766 0,0 1,-36.566441,-150.356323"
              stroke="#c0c0c0" stroke-width="1.0" stroke-opacity="1.0"/>
        <path fill="none" stroke-width="1.0"
              d="M 420.694641,-65.248901 C 520.694641,-165.248901 520.694641,34.751099 420.694641,-65.248901"
              class="id_3" stroke-opacity="1.0" stroke="#c0c0c0"/>
        <path stroke-linecap="round" fill="none" class="id_9 id_3"
              d="M -282.884552,-266.095093 A 643.556544,643.556544 0,0 1,387.465332,-102.609474"
              stroke="#c0c0c0" stroke-width="1.0" stroke-opacity="1.0"/>
        <path fill="none" stroke-width="1.0"
              d="M -153.543167,84.668152 C -53.543167,-15.331848 -53.543167,184.668152 -153.543167,84.668152"
              class="id_4" stroke-opacity="1.0" stroke="#c0c0c0"/>
        <path stroke-linecap="round" fill="none" class="id_6 id_4"
              d="M -264.707092,305.036804 A 240.319967,240.319967 0,0 1,-192.779831,115.659836"
              stroke="#c0c0c0" stroke-width="1.0" stroke-opacity="1.0"/>
        <path stroke-linecap="round" fill="none" class="id_9 id_4"
              d="M -286.207275,-223.356796 A 313.813312,313.813312 0,0 1,-149.681061,34.817535"
              stroke="#c0c0c0" stroke-width="1.0" stroke-opacity="1.0"/>
        <path stroke-linecap="round" fill="none" class="id_4 id_0"
              d="M -199.513504,104.333549 A 239.184179,239.184179 0,0 1,-398.882721,77.343079"
              stroke="#c0c0c0" stroke-width="1.0" stroke-opacity="1.0"/>
        <path stroke-linecap="round" fill="none" class="id_4 id_1"
              d="M -110.413658,59.372978 A 251.451406,251.451406 0,0 1,105.739395,62.287937"
              stroke="#c0c0c0" stroke-width="1.0" stroke-opacity="1.0"/>
        <path stroke-linecap="round" fill="none" class="id_4 id_3"
              d="M -120.480270,47.160225 A 494.570598,494.570598 0,0 1,373.516357,-81.808159"
              stroke="#c0c0c0" stroke-width="1.0" stroke-opacity="1.0"/>
        <path stroke-linecap="round" fill="none" class="id_7 id_4"
              d="M 301.773285,285.541565 A 448.744998,448.744998 0,0 1,-124.357872,125.266411"
              stroke="#c0c0c0" stroke-width="1.0" stroke-opacity="1.0"/>
        <path stroke-linecap="round" fill="none" class="id_10 id_4"
              d="M 256.965179,-286.378601 A 495.087362,495.087362 0,0 1,-104.466560,75.103271"
              stroke="#c0c0c0" stroke-width="1.0" stroke-opacity="1.0"/>
        <path stroke-linecap="round" fill="none" class="id_5 id_4"
              d="M 6.318605,392.755646 A 323.544960,323.544960 0,0 1,-154.051575,134.665573"
              stroke="#c0c0c0" stroke-width="1.0" stroke-opacity="1.0"/>
        <path fill="none" stroke-width="1.0"
              d="M 51.370182,414.443329 C 151.370178,314.443329 151.370178,514.443359 51.370182,414.443329"
              class="id_5" stroke-opacity="1.0" stroke="#c0c0c0"/>
        <path stroke-linecap="round" fill="none" class="id_6 id_5"
              d="M -209.040680,336.921417 A 260.954249,260.954249 0,0 1,14.478435,380.694275"
              stroke="#c0c0c0" stroke-width="1.0" stroke-opacity="1.0"/>
        <path stroke-linecap="round" fill="none" class="id_9 id_5"
              d="M -284.448456,-226.712952 A 636.972987,636.972987 0,0 1,55.490612,364.613403"
              stroke="#c0c0c0" stroke-width="1.0" stroke-opacity="1.0"/>
        <path fill="none" stroke-width="1.0"
              d="M -255.937515,354.261749 C -155.937515,254.261749 -155.937515,454.261749 -255.937515,354.261749"
              class="id_6" stroke-opacity="1.0" stroke="#c0c0c0"/>
        <path stroke-linecap="round" fill="none" class="id_9 id_6"
              d="M -296.776184,-210.495270 A 505.811239,505.811239 0,0 1,-233.185242,309.738342"
              stroke="#c0c0c0" stroke-width="1.0" stroke-opacity="1.0"/>
        <path fill="none" stroke-width="1.0"
              d="M 350.479187,274.239502 C 450.479187,174.239502 450.479187,374.239502 350.479187,274.239502"
              class="id_7" stroke-opacity="1.0" stroke="#c0c0c0"/>
        <path stroke-linecap="round" fill="none" class="id_9 id_7"
              d="M -279.637238,-245.899490 A 714.656191,714.656191 0,0 1,335.359802,226.580246"
              stroke="#c0c0c0" stroke-width="1.0" stroke-opacity="1.0"/>
        <path stroke-linecap="round" fill="none" class="id_7 id_3"
              d="M 333.197937,227.320862 A 288.894667,288.894667 0,0 1,386.219299,-29.034929"
              stroke="#c0c0c0" stroke-width="1.0" stroke-opacity="1.0"/>
        <path stroke-linecap="round" fill="none" class="id_7 id_5"
              d="M 323.081787,316.065125 A 275.281793,275.281793 0,0 1,101.044304,420.142548"
              stroke="#c0c0c0" stroke-width="1.0" stroke-opacity="1.0"/>
        <path stroke-linecap="round" fill="none" class="id_7 id_6"
              d="M 313.075348,307.420105 A 509.728068,509.728068 0,0 1,-211.206924,376.603943"
              stroke="#c0c0c0" stroke-width="1.0" stroke-opacity="1.0"/>
        <path fill="none" stroke-width="1.0"
              d="M -68.319153,-440.781006 C 31.680847,-540.781006 31.680847,-340.781006 -68.319153,-440.781006"
              class="id_8" stroke-opacity="1.0" stroke="#c0c0c0"/>
        <path stroke-linecap="round" fill="none" class="id_9 id_8"
              d="M -310.817688,-294.572418 A 270.462178,270.462178 0,0 1,-118.142014,-436.575989"
              stroke="#c0c0c0" stroke-width="1.0" stroke-opacity="1.0"/>
        <path fill="none" stroke-width="1.0"
              d="M -329.583008,-248.227386 C -229.583008,-348.227386 -229.583008,-148.227386 -329.583008,-248.227386"
              class="id_9" stroke-opacity="1.0" stroke="#c0c0c0"/>
        <path stroke-linecap="round" fill="none" class="id_10 id_9"
              d="M 229.565613,-301.779663 A 502.045522,502.045522 0,0 1,-284.525574,-226.551895"
              stroke="#c0c0c0" stroke-width="1.0" stroke-opacity="1.0"/>
        <path stroke-linecap="round" fill="none" class="id_10 id_7"
              d="M 299.925476,-298.250458 A 512.874430,512.874430 0,0 1,372.582275,229.390274"
              stroke="#c0c0c0" stroke-width="1.0" stroke-opacity="1.0"/>
        <path stroke-linecap="round" fill="none" class="id_10 id_8"
              d="M 218.117218,-322.932343 A 292.513848,292.513848 0,0 1,-35.799004,-402.801544"
              stroke="#c0c0c0" stroke-width="1.0" stroke-opacity="1.0"/>
        <path fill="none" stroke-width="1.0"
              d="M 266.523254,-335.456543 C 366.523254,-435.456543 366.523254,-235.456543 266.523254,-335.456543"
              class="id_10" stroke-opacity="1.0" stroke="#c0c0c0"/>
    </g>
    <g id="nodes">
        <circle fill-opacity="1.0" fill="#c0c0c0" r="46.0" cx="-437.9696"
                class="id_0" cy="46.162693" stroke="#868686"
                stroke-opacity="1.0" stroke-width="8.0"/>
        <circle fill-opacity="1.0" fill="#c0c0c0" r="46.0" cx="148.1711"
                class="id_1" cy="88.73695" stroke="#868686" stroke-opacity="1.0"
                stroke-width="8.0"/>
        <circle fill-opacity="1.0" fill="#c0c0c0" r="46.0" cx="8.114049"
                class="id_2" cy="-172.79855" stroke="#868686"
                stroke-opacity="1.0" stroke-width="8.0"/>
        <circle fill-opacity="1.0" fill="#c0c0c0" r="46.0" cx="420.69464"
                class="id_3" cy="-65.2489" stroke="#868686" stroke-opacity="1.0"
                stroke-width="8.0"/>
        <circle fill-opacity="1.0" fill="#c0c0c0" r="46.0" cx="-153.54317"
                class="id_4" cy="84.66815" stroke="#868686" stroke-opacity="1.0"
                stroke-width="8.0"/>
        <circle fill-opacity="1.0" fill="#c0c0c0" r="46.0" cx="51.370182"
                class="id_5" cy="414.44333" stroke="#868686"
                stroke-opacity="1.0" stroke-width="8.0"/>
        <circle fill-opacity="1.0" fill="#c0c0c0" r="46.0" cx="-255.93752"
                class="id_6" cy="354.26175" stroke="#868686"
                stroke-opacity="1.0" stroke-width="8.0"/>
        <circle fill-opacity="1.0" fill="#c0c0c0" r="46.0" cx="350.4792"
                class="id_7" cy="274.2395" stroke="#868686" stroke-opacity="1.0"
                stroke-width="8.0"/>
        <circle fill-opacity="1.0" fill="#c0c0c0" r="46.0" cx="-68.31915"
                class="id_8" cy="-440.781" stroke="#868686" stroke-opacity="1.0"
                stroke-width="8.0"/>
        <circle fill-opacity="1.0" fill="#c0c0c0" r="46.0" cx="-329.583"
                class="id_9" cy="-248.22739" stroke="#868686"
                stroke-opacity="1.0" stroke-width="8.0"/>
        <circle fill-opacity="1.0" fill="#c0c0c0" r="46.0" cx="266.52325"
                class="id_10" cy="-335.45654" stroke="#868686"
                stroke-opacity="1.0" stroke-width="8.0"/>
    </g>
</svg>